<?xml version="1.0" encoding="utf-8"?>
<!-- Designed by Vexels.com - 2020 All Rights Reserved - https://vexels.com/terms-and-conditions/  -->
<svg version="1.1" id="Capa_1" xmlns="http://www.w3.org/2000/svg" xmlns:xlink="http://www.w3.org/1999/xlink" x="0px" y="0px"
	 viewBox="0 0 1200 1200" enable-background="new 0 0 1200 1200" xml:space="preserve">
<g>
	<path fill="#2E45CE" d="M399.622,446.79c3.98,3.679,10.431,7.823,19.637,8.414c3.546-6.474,7.43-21.369,9.002-32.157
		c0.602-4.159-1.004-8.29-4.304-11.052c-11.793-9.889-17.749-18.291-20.314-22.555c-9.577,10.474-14.35,23.793-15.563,33.221
		C388.194,430.812,392.717,440.412,399.622,446.79z"/>
	<path fill="#2E45CE" d="M580.215,124.89c-0.045,9.631-1.241,53.711-18.627,80.803c21.262-24.965,24.44-70.16,24.906-82.788
		C584.43,123.634,582.263,124.306,580.215,124.89z"/>
	<path fill="#2E45CE" d="M486.719,116.582c-12.23,33.089-10.118,69.899,5.344,90.197c9.03,11.854,21.905,17.275,37.158,15.694
		c42.348-4.394,46.043-80.407,46.349-96.369C540.025,134.26,501,121.901,486.719,116.582z"/>
	<path fill="#2E45CE" d="M511.499,236.262c27.677,3.532,50.293-7.192,67.233-31.869c13.026-18.975,21.489-43.977,24.474-72.301
		c1.689-16.048,2.463-35.299-4.582-48.792c-5.818,14.797-7.368,35.399-7.432,36.321c0.005,4.895-0.7,103.297-61.406,107.428
		c-0.03,0.003-0.057,0.011-0.088,0.014c-0.022,0.002-0.042,0.001-0.064,0.003c-0.009,0.001-0.017,0.002-0.026,0.003l0-0.002
		c-1.89,0.193-3.748,0.295-5.569,0.295c-14.487,0-26.727-6.081-35.645-17.787c-16.874-22.15-19.015-60.675-5.422-96.088
		c-1.223-4.567-9.778-33.34-35.027-51.14c-20.683,31.767-21.076,74.316-14.364,103.966
		C442.34,205.009,471.469,231.156,511.499,236.262z"/>
	<path fill="#2E45CE" d="M421.514,459.912c-9.497,0-18.099-3.335-25.024-9.732c-7.791-7.199-12.897-18.106-13.006-27.79
		c0.686-5.502,3.96-23.315,18.251-37.75l-0.039-0.444c-3.429-37.591,1.916-72.84,15.126-101.58
		c-0.708-3.363-3.3-17.551-0.504-32.222c-14.008,5.42-24.228,14.309-30.317,26.555c-7.24,14.561-12.527,41.556,3.413,87.477
		c0.303,0.863,0.522,1.497,0.637,1.874l0.361,1.165l-0.76,0.953c-7.878,9.896-10.991,32.071-8.412,44.543
		c1.648,7.968-0.94,14.059-3.937,21.109c-2.134,5.022-4.552,10.714-5.988,18.28c-2.724,14.362,3.934,23.656,9.809,31.856
		c1.201,1.674,2.347,3.274,3.342,4.819l0.219,0.438c4.497,11.96,10.447,18.679,17.674,19.979
		c9.262,1.645,18.663-5.888,22.764-10.608c15.479-16.553,19.658-35.914,20.789-44.996c-4.316,2.764-11.03,5.262-21.584,5.977
		C423.384,459.88,422.444,459.912,421.514,459.912z"/>
	<path fill="#2E45CE" d="M427.496,263.366c6.919-10.419,16.006-17.253,26.391-20.193c-1.757-11.026,0.568-19.491,2.438-24.075
		c-12.258,1.148-21.591,5.731-27.722,13.728c-10.078,13.151-9.458,32.417-8.237,42.585
		C422.567,271.237,424.941,267.213,427.496,263.366z"/>
	<path fill="#2E45CE" d="M479.073,248.052c-3.586-1.021-8.18-1.916-13.264-1.916c-10.87,0-23.996,4.08-34.408,19.699
		c-0.695,1.392-9.939,20.386-3.243,31.074c3.264,5.206,10.025,7.772,20.211,7.491c33.858-0.773,51.961,3.361,60.543,13.888
		c3.233,3.966,4.936,8.863,5.129,14.612c5.666-12.591,6.523-27.852,6.055-42.782C519.582,273.784,500.414,254.13,479.073,248.052z"
		/>
	<path fill="#2E45CE" d="M547.964,236.515c-8.132,3.34-16.897,5.027-26.276,5.027c-3.506,0-7.099-0.232-10.775-0.702
		c-19.443-2.479-36.392-9.742-49.955-20.802c-1.61,3.685-4.163,11.613-2.559,22.14c6.906-1.174,14.291-0.742,21.939,1.434
		c18.982,5.405,35.89,20.325,41.975,35.59C532.833,275.126,547.768,264.373,547.964,236.515z"/>
	<path fill="#2E45CE" d="M722.165,131.864c-5.099,5.743-7.285,12.472-6.316,19.458c0.779,5.626,4.689,10.542,11.57,14.657
		c5.482-14.593,13.959-33.405,23.396-48.016C740.04,118.923,728.808,124.382,722.165,131.864z"/>
	<path fill="#2E45CE" d="M814.465,222.385c-6.351,4.72-13.634,9.305-22.112,13.526c-0.085,0.042-0.175,0.07-0.261,0.111
		c7.769,3.948,25.207,10.694,46.332,5.841c3.076-9.257,0.003-16.614-1.631-19.531C826.342,225.296,817.581,223.309,814.465,222.385z
		"/>
	<path fill="#2E45CE" d="M497.225,489.88c-1.741,6.315-5.893,25.627,0.823,47.776c17.066,5.953,105.753,24.103,194.389-12.923
		c2.594-7.634,5.281-37.807-8.429-55.524c-39.005,22.305-83.113,28.475-118.978,28.475
		C531.787,497.685,505.666,492.421,497.225,489.88z"/>
	<path fill="#2E45CE" d="M774.853,230.96c4.687,2.917,10.601,3.232,15.447,0.818c36.794-18.315,51.291-43.416,56.658-56.748
		c2.067-5.138,1.893-11.081-0.477-16.303c-17.014-37.47-58.889-48.062-71.315-50.419c-1.033-0.196-2.073-0.29-3.103-0.29
		c-5.306,0-10.411,2.527-13.586,6.893c-12.034,16.554-23.044,41.82-28.82,58.425c-1.468,4.233-1.127,8.808,0.937,12.546
		C741.468,205.611,761.235,222.496,774.853,230.96z"/>
	<path fill="#2E45CE" d="M618.049,309.044c13.417,12.532,30.236,18.705,50.007,18.582c3.1-32.542-1.831-53.61-3.163-58.493
		c-3.795-1.349-6.984-2.626-9.386-3.719C642.543,286.86,624.08,303.798,618.049,309.044z"/>
	<path fill="#2E45CE" d="M582.537,207.008c-0.296,0.431-0.605,0.83-0.904,1.253c0.163,6.997,2.468,65.148,33.11,97.531
		c5.645-4.918,25.173-22.746,37.864-44.531l1.095-1.877l1.938,0.979c8.721,4.407,43.532,16.602,78.537,16.918
		c12.147,0.109,25.852,2.63,39.106,5.067c24.718,4.543,48.065,8.84,56.091-3.174c7.751-11.602,8.605-26.507,8.61-32.484
		c-5.131,1.072-10.044,1.556-14.643,1.556c-19.827,0-34.085-8.251-37.474-10.408c-0.828,0.101-1.66,0.161-2.494,0.161
		c-3.809,0-7.623-1.046-10.956-3.116c-6.606-4.106-14.218-9.808-21.627-16.68c-4.431,0.452-8.604,0.696-12.518,0.696
		c-24.123,0.003-39.727-8.264-63.27-20.733c-4.9-2.598-10.17-5.389-15.962-8.345c-34.598-17.654-62.396-3.294-66.167-1.162
		C589.814,195.217,586.394,201.389,582.537,207.008z"/>
	<path fill="#2E45CE" d="M487.322,111.871c13.241,5.038,54.039,18.519,89.99,9.054l0.049-0.013c2.872-0.757,6.424-1.911,9.336-3.004
		c0.483-5.617,2.601-25.562,8.93-39.346c-0.492-0.644-0.982-1.291-1.526-1.894c-25.676-28.43-105.539-34.054-142.291-17.231
		C476.968,77.816,485.651,105.661,487.322,111.871z"/>
	<path fill="#2E45CE" d="M819.177,218.72c3.94,0.679,10.216,1.065,17.207-1.099c2.561-3.651,15.84-23.529,15.032-41.383
		c-0.064,0.171-0.109,0.347-0.177,0.517C847.195,186.799,838.16,203.218,819.177,218.72z"/>
	<path fill="#2E45CE" d="M845.106,838.806c-20.701-25.61-26.341-38.362-31.846-58.985c-4.72-17.708-15.2-39.74-17.901-45.276
		c-44.146,0.989-79.732,18.897-98.146,30.402c7.662,7.758,34.239,35.242,45.482,54.476c1.629,2.788,3.226,5.605,4.826,8.428
		c10.804,19.059,21.975,38.771,44.559,50.132l1.272,0.637l-0.013,2.392c-0.113,6.336-0.447,25.555,44.221,91.14
		c5.611-0.029,31.08-1.214,50.567-19.609C879.518,900.055,866.228,864.941,845.106,838.806z"/>
	<path fill="#2E45CE" d="M895.334,966.786c0.178-2.963-2.637-8.073-4.686-10.347c-19.791,18.248-44.301,20.203-51.999,20.328
		c0.284,2.417,1.575,6.544,6.772,9.687C853.718,987.483,878.912,985.976,895.334,966.786z"/>
	<path fill="#2E45CE" d="M687.047,771.786c2.531,0.528,6.214,1,11.184,0.833c-2.166-2.251-3.89-4.008-4.991-5.121
		C690.708,769.171,688.613,770.642,687.047,771.786z"/>
	<path fill="#2E45CE" d="M759.757,657.407c-1.539-2.569-2.511-5.238-3.454-7.817c-2.311-6.326-4.497-12.304-14.487-18.032
		c-9.278-5.318-10.199-10.334-11.474-17.278c-0.985-5.363-2.212-12.037-7.736-22.004l-0.206-0.509
		c-0.808-2.946,0.097-7.256,1.246-12.717c3.491-16.619,8.735-41.679-29.232-50.155c-42.335,17.719-84.764,23.025-119.654,23.025
		c-40.366,0-70.594-7.074-78.974-10.186c-1.384,0.011-7.789,0.277-12.295,4.507c-3.017,2.833-4.62,6.941-4.755,12.218
		c-0.135,5.135,0.2,8.985,0.467,12.079c0.827,9.536,0.489,12.903-12.073,20.256c-9.278,5.431-9.797,12.546-10.344,20.082
		c-0.325,4.488-0.663,9.13-3.026,13.148c-1.487,2.527-5.038,6.436-9.954,11.841c-14.053,15.459-37.309,41.041-30.446,56.307
		c11.037-1.106,73.774-3.183,144.833,76.259c3.4-10.61,7.741-22.828,12.716-31.207c8.142-13.711,18.122-21.525,29.66-23.215
		c11.422-1.684,24.377,3.696,38.565,15.962c6.265,5.415,12.172,11.345,17.884,17.079c7.845,7.876,15.974,15.964,25.011,22.736
		c8.422-6.468,52.424-37.997,111.722-39.838C789.427,715.517,776.662,685.013,759.757,657.407z"/>
	<path fill="#2E45CE" d="M963.167,1102.263c-20.417-8.145-35.767,3.229-36.414,3.718l-2.801-3.667
		c0.477-0.369,8.184-6.079,19.926-7.33l-41.035-106.93l-7.035,7.959c0.86,2.547,2.868,8.383,4.382,11.95
		c0.451,1.072,0.328,2.276-0.332,3.226c-0.673,0.969-1.793,1.536-2.981,1.465c-10.093-0.448-15.955,4.449-17.996,6.584
		c-0.644,0.673-1.52,1.037-2.427,1.037c-0.209,0-0.422-0.019-0.634-0.058c-1.136-0.216-2.08-0.982-2.518-2.054l-4.732-11.509
		l-14.441,1.042l49.123,133.126c1.59,4.301,5.737,7.189,10.321,7.189h64.761c1.938,0,3.744-0.766,5.087-2.16
		c1.31-1.365,1.993-3.149,1.922-5.022C984.904,1129.554,981.44,1109.549,963.167,1102.263z"/>
	<path fill="#2E45CE" d="M876.891,1014.757c3.049-2.695,9.095-6.661,18.331-6.748c-1.919-4.855-4.111-11.487-4.217-11.802
		l-0.415-1.259l10.388-11.753l-4.255-11.087c-13.853,14.417-33.507,19.248-46.449,19.248c-0.769,0-1.482-0.038-2.201-0.071
		l4.392,11.903l19.105-1.375L876.891,1014.757z"/>
	<path fill="#2E45CE" d="M523.026,740.61c-3.823,5.891-9.499,14.337-19.066,23.633c18.837,3.943,39.987,5.568,49.775,6.148
		C543.243,758.76,532.958,748.896,523.026,740.61z"/>
	<path fill="#2E45CE" d="M275.245,960.274c-0.967,2.4-2.374,5.893-4.137,10.278l9.546,11.909l-4.501,11.69
		c6.188-1.204,17.971-1.771,25.333,8.593c2.276-5.232,4.275-9.948,4.275-9.948l0.599-1.41l14.084,0.032
		c2.118-5.037,3.847-9.131,4.963-11.766c-0.117,0-0.238,0.009-0.355,0.009C301.047,979.66,282.757,968.598,275.245,960.274z"/>
	<path fill="#2E45CE" d="M470.918,361.074l0.827-0.113c17.933-2.392,29.425-9.243,36.695-18.648
		c2.061-9.101,1.049-16.012-3.104-21.108c-7.482-9.175-25.04-12.939-56.857-12.189c-11.844,0.216-20.05-2.971-24.239-9.668
		c-2.861-4.573-3.409-10.127-2.913-15.487c-13.106,28.123-18.42,62.822-15.035,99.915l0.093,1.1
		c0.868,1.741,6.155,11.521,20.537,23.579c4.533,3.796,6.741,9.5,5.904,15.253c-1.466,10.071-4.882,23.635-8.425,31.465
		c22.05-1.609,24.506-11.277,24.525-11.376c13.634-71.975,20.668-81.286,21.425-82.11L470.918,361.074z"/>
	<path fill="#2E45CE" d="M682.483,464.805c1.201-13.141-2.936-92.341-14.049-132.5c-0.425,0.006-0.85,0.01-1.268,0.01
		c-21.071,0-38.964-6.97-53.229-20.746c-30.11-29.07-35.669-79.592-36.696-97.528c-7.346,8.976-15.58,15.764-24.664,20.348
		c0.419,24.289-9.987,42.009-28.846,49.169c0.558,2.156,0.912,4.303,0.978,6.412c0.992,31.569-3.973,68.582-51.314,75.423
		c-1.46,2.638-7.352,15.62-17.595,67.202c4.166,3.222,17.986,15.576,41.505,52.511C506.934,489.073,604.938,509.661,682.483,464.805
		z"/>
	<path fill="#2E45CE" d="M304.609,1007.118c-0.486,1.104-1.529,1.819-2.724,1.877c-0.052,0.003-0.103,0.003-0.155,0.003
		c-1.156,0-2.215-0.621-2.788-1.645c-6.539-11.68-19.165-9.571-24.287-8.11c-1.165,0.325-2.382-0.023-3.19-0.918
		c-0.811-0.895-1.043-2.151-0.605-3.277l4.533-11.77l-6.26-7.814c-11.063,27.533-32.316,80.612-51.318,129.127
		c-2.099,5.363-3.161,11.013-3.161,16.795v15.762c0,7.086,5.766,12.852,12.852,12.852H284.9c3.545,0,6.973-1.474,9.407-4.047
		c2.398-2.534,3.615-5.827,3.425-9.272c-0.988-17.839-8.209-29.992-21.46-36.115c-17.645-8.161-33.443,1.146-41.282,7.421
		l-2.885-3.606c8.673-6.941,26.196-17.198,46.105-8.006c1.683,0.778,3.259,1.674,4.774,2.634
		c0.566-10.731,2.374-19.812,5.859-29.645c6.123-16.832,20.465-51.407,29.663-73.336l-9.094-0.021
		C308.466,998.223,306.541,1002.723,304.609,1007.118z"/>
	<path fill="#2E45CE" d="M281.993,943.413c-2.044,1.293-5.67,4.576-5.122,11.483c4.887,7.633,24.883,21.258,51.449,20.073
		c3.811-2.118,6.65-7.831,7.284-12.592c-2.12,0.171-4.203,0.284-6.202,0.284C302.432,962.664,286.418,948.07,281.993,943.413z"/>
	<path fill="#2E45CE" d="M413.392,696.802c-3.187,4.78-20.581,31.319-39.215,68.464c-9.549,19.033-21.142,31.447-32.351,43.452
		c-13.071,13.995-25.414,27.213-31.669,49.173c-10.424,36.604-22.655,74.715-25.037,82.097c3.937,4.124,21.856,20.797,51.838,17.661
		c11.287-12.04,33.166-41.556,56.838-106.574l0.19-0.515l0.396-0.373c1.191-1.124,3.168-3.049,5.743-5.557
		c15.868-15.45,53.026-51.623,72.133-62.559c28.805-16.487,40.306-33.802,47.167-44.389C463.981,693.09,420.221,696,413.392,696.802
		z"/>
</g>
</svg>
