<?xml version="1.0" encoding="utf-8"?>
<!-- Designed by Vexels.com - 2020 All Rights Reserved - https://vexels.com/terms-and-conditions/  -->
<svg version="1.1" id="Capa_1" xmlns="http://www.w3.org/2000/svg" xmlns:xlink="http://www.w3.org/1999/xlink" x="0px" y="0px"
	 viewBox="0 0 1200 1200" enable-background="new 0 0 1200 1200" xml:space="preserve">
<path fill="#2E45CE" d="M961.53,1092.048c-5.609-2.238-10.878-3.148-15.669-3.262l-48.083-125.286
	c0.308-5.245-3.61-12.412-7.132-15.49c-8.686-52.89-22.185-88.435-43.721-115.076c-19.572-24.218-24.999-35.811-30.471-56.327
	c-5.295-19.856-17.222-44.084-18.615-46.882c-3.516-13.336-16.917-46.269-34.958-75.721c-1.236-2.074-2.071-4.356-2.954-6.772
	c-2.412-6.603-5.143-14.085-16.79-20.761c-6.95-3.987-7.489-6.902-8.661-13.291c-0.981-5.334-2.32-12.616-8.033-23.049
	c-0.28-1.807,0.561-5.803,1.373-9.678c3.357-15.965,9.505-45.298-30.392-55.544c2.965-12.129,3.46-40.944-10.259-58.198
	c1.457-15.772-3.256-95.175-14.408-134.259c2.836-27.869-0.065-47.494-2.05-56.729c15.982,5.028,38.961,10.222,62.058,10.431
	c11.542,0.102,24.865,2.552,37.752,4.923c26.315,4.841,51.168,9.407,61.135-5.516c9.85-14.741,9.605-33.565,9.429-37.551
	c4.064-11.317,0.361-20.442-1.792-24.365c5.085-7.451,22.666-35.823,11.556-57.004c-0.397-1.935-0.988-3.843-1.82-5.674
	c-17.947-39.524-61.642-50.607-74.605-53.064c-8.381-1.584-17.039,1.836-22.042,8.722c-0.159,0.218-0.315,0.454-0.473,0.675
	c-13.073,0.379-26.906,6.425-35.131,15.688c-6.157,6.934-8.786,15.13-7.594,23.702c1.014,7.336,5.804,13.552,14.163,18.532
	c-0.078,0.222-0.164,0.458-0.241,0.677c-1.973,5.669-1.495,11.835,1.303,16.918c4.88,8.845,11.348,17.053,18.308,24.267
	c-25.933,1.437-40.715-6.365-65.881-19.697c-4.872-2.581-10.111-5.354-15.869-8.292c-28.069-14.325-51.674-9.008-63.43-4.458
	c5.543-14.204,9.359-30.084,11.156-47.163c2.094-19.856,2.804-44.527-10.408-59.157c-28.16-31.178-114.027-36.484-150.992-16.555
	l-0.695,0.373c0,0-0.446,0.65-0.486,0.713c-22.698,33.094-23.278,78.07-16.247,109.143c4.124,18.21,12.561,33.747,24.363,45.867
	c-12.241,1.74-21.758,6.865-28.28,15.37c-3.431,4.477-5.71,9.518-7.249,14.664c-16.496,5.746-28.46,15.776-35.49,29.92
	c-10.956,22.036-9.879,53.462,3.117,90.88c0.013,0.041,0.029,0.086,0.045,0.127c-8.279,11.883-11.08,33.941-8.336,47.21
	c1.281,6.188-0.752,10.978-3.566,17.603c-2.221,5.226-4.739,11.153-6.271,19.225c-3.142,16.548,4.828,27.67,10.647,35.792
	c1.058,1.479,2.071,2.893,2.967,4.264c5.181,13.588,12.441,21.309,21.583,22.95c1.246,0.223,2.476,0.325,3.684,0.325
	c12.638,0,22.797-11.242,23.938-12.559c20.044-21.435,22.177-46.693,22.404-52.269c2.004-2.588,2.456-4.67,2.5-4.9
	c0.33-1.743,0.656-3.442,0.978-5.11c5.775,5.367,17.955,18.501,36.305,47.211c-1.675,5.557-6.486,25.133-0.182,48.593
	c-3.411,0.545-8.201,1.957-12.097,5.593c-4.133,3.859-6.319,9.251-6.498,16.029c-0.14,5.398,0.207,9.381,0.484,12.584
	c0.688,7.912,0.778,8.929-9.225,14.78c-11.704,6.851-12.406,16.507-12.97,24.266c-0.29,3.983-0.561,7.744-2.247,10.605
	c-1.179,2.008-4.885,6.083-9.177,10.806c-14.835,16.317-39.323,43.262-31.097,61.698c-4.28,6.476-20.936,32.271-38.675,67.625
	c-9.095,18.122-20.289,30.114-31.117,41.71c-13.406,14.356-26.067,27.915-32.628,50.941c-10.261,36.029-22.29,73.531-24.695,80.98
	c-3.89,2.118-9.076,7.446-8.438,16.752c-3.031,7.512-32.616,80.887-58.1,145.956c-2.329,5.953-3.512,12.227-3.512,18.645v15.602
	c0,10.073,8.196,18.269,18.272,18.269h56.811c5.025,0,9.888-2.094,13.342-5.742c3.432-3.626,5.169-8.349,4.895-13.291
	c-0.816-14.799-5.854-26.393-14.693-34.158c0.374-11.192,2.057-20.358,5.576-30.292c8.585-23.594,33.676-82.844,37.08-90.871
	c5.653-3.546,9.345-11.662,9.616-18.058c11.501-12.359,33.423-42.084,56.924-106.402c1.208-1.157,2.976-2.878,5.185-5.025
	c15.554-15.143,51.98-50.604,70.284-61.081c10.173-5.824,18.267-11.826,24.828-17.619c26.125,5.857,57.004,7.015,58.331,7.062
	c1.401,0.114,2.809-0.968,3.228-2.288c2.205-7.052,7.361-23.572,13.276-33.527c7.157-12.065,15.701-18.903,25.388-20.324
	c11.998-1.762,24.964,6.918,33.743,14.509c6.042,5.223,11.813,11.013,17.393,16.615c8.314,8.349,16.915,16.985,26.78,24.142
	c0.081,0.059,0.179,0.07,0.265,0.121c0.086,0.052,0.143,0.134,0.299,0.207c0.484,0.226,5.604,2.515,15.418,2.515
	c1.733,0,3.654-0.101,5.676-0.269c10.976,11.655,27.552,30.19,35.517,43.814c1.6,2.737,3.167,5.503,4.739,8.276
	c10.815,19.082,21.991,38.797,44.616,50.897c-0.051,8.223,1.641,29.038,44.802,92.402c-0.024,3.003,0.865,10.154,8.865,15.31
	l55.488,150.363c2.371,6.427,8.566,10.745,15.417,10.745h64.105c3.391,0,6.682-1.402,9.034-3.843
	c2.352-2.447,3.575-5.656,3.442-9.031C986.481,1122.652,982.533,1100.422,961.53,1092.048z M887.122,992.529
	c0.092,0.287,1.918,5.803,3.69,10.443c-7.737,0.402-13.148,3.48-16.335,6.004l-5.032-12.234l-18.88,1.362l-3.591-9.731
	c0.245,0.004,0.466,0.023,0.716,0.023c12.691,0,31.778-4.637,45.635-18.285l3.466,9.03l-10.259,11.61L887.122,992.529z
	 M843.258,981.622c-3.963-2.464-5.362-5.513-5.855-7.697c8.713-0.306,31.437-2.845,50.208-19.67
	c1.698,2.224,3.724,6.116,3.755,8.468C875.513,981.003,851.447,982.581,843.258,981.622z M690.714,524.812
	c-86.571,35.983-173.009,18.763-190.831,12.762c-6.082-20.517-2.691-38.448-0.912-45.335c9.443,2.635,34.689,7.468,66.477,7.468
	c35.431,0,78.908-6.062,117.446-27.857C695.46,488.883,693.162,516.96,690.714,524.812z M666.475,329.457
	c-18.51-0.025-34.365-5.86-47.121-17.41c6.685-5.904,23.684-21.898,35.979-41.939c2.17,0.955,4.92,2.038,8.08,3.172
	C664.838,278.709,669.261,298.854,666.475,329.457z M847.778,185.608c-1.412,15.476-11.763,31.296-14.401,35.105
	c-5.438,1.63-10.416,1.674-14.083,1.275C834.763,208.898,843.25,195.335,847.778,185.608z M812.485,227.341
	c3.445,0.956,11.65,2.59,21.404,0.027c1.547,3.035,3.793,9.424,1.359,17.339c-18.909,4.169-34.754-1.131-42.919-4.961
	C799.961,235.845,806.633,231.658,812.485,227.341z M715.643,155.793c-0.931-6.714,1.09-12.928,6.01-18.47
	c5.996-6.75,15.897-11.703,25.648-13.121c-8.684,13.876-16.458,31.069-21.675,44.784
	C719.703,165.206,716.334,160.783,715.643,155.793z M729.266,178.042c4.579-13.174,15.71-40.126,28.39-57.579
	c2.957-4.066,7.715-6.418,12.657-6.418c0.962,0,1.928,0.089,2.89,0.271c12.186,2.307,53.233,12.689,69.883,49.348
	c2.234,4.927,2.4,10.529,0.453,15.369c-5.261,13.065-19.48,37.676-55.607,55.658c-4.493,2.234-9.99,1.944-14.337-0.765
	c-13.381-8.317-32.797-24.9-43.472-44.259C728.214,186.203,727.902,181.968,729.266,178.042z M658,194.909
	c5.723,2.922,10.933,5.682,15.777,8.247c23.438,12.415,38.976,20.646,63.044,20.643c3.783,0,7.818-0.237,12.085-0.659
	c7.286,6.721,14.752,12.296,21.241,16.331c3.454,2.145,7.412,3.231,11.364,3.231c0.748,0,1.496-0.048,2.239-0.126
	c3.936,2.448,18.017,10.266,37.339,10.266c4.258,0,8.779-0.398,13.493-1.301c-0.12,6.428-1.285,19.814-8.353,30.395
	c-7.591,11.354-30.381,7.164-54.53,2.725c-13.161-2.422-26.771-4.923-38.877-5.032c-34.463-0.312-68.726-12.307-77.305-16.641
	l-2.744-1.386l-1.549,2.658c-11.991,20.586-30.236,37.621-36.577,43.221c-29.046-31.465-31.619-86.802-31.838-94.893
	c0.235-0.333,0.48-0.646,0.712-0.984c3.795-5.529,7.168-11.593,10.188-18.033C598.293,190.99,624.572,177.857,658,194.909z
	 M593.439,82.692c0.39,0.433,0.733,0.906,1.095,1.361c-5.94,13.326-8.057,31.914-8.617,38.104c-2.74,1.005-5.953,2.035-8.574,2.726
	l-0.049,0.013c-34.894,9.189-74.511-3.664-88.014-8.753c-1.934-6.937-10.509-33.015-34.038-50.943
	C491.961,49.484,568.594,55.186,593.439,82.692z M488.455,122.802c14.741,5.395,52.006,16.813,86.358,9.394
	c-0.465,17.985-4.853,89.025-44.973,93.187c-14.767,1.539-27.179-3.703-35.897-15.152
	C478.972,190.582,476.833,155.016,488.455,122.802z M436.229,170.554c-6.538-28.886-6.217-70.209,13.542-101.299
	c23.576,17.102,31.93,43.975,33.366,49.187c-13.44,35.273-11.235,73.626,5.614,95.747c9.021,11.838,21.398,17.989,36.044,17.989
	c1.787,0,3.61-0.103,5.464-0.286c0.043-0.001,0.086-0.002,0.128-0.004c0.016-0.001,0.03-0.004,0.045-0.005
	c0.028-0.003,0.054-0.002,0.082-0.004c0.039-0.004,0.075-0.014,0.113-0.018c60.726-4.202,61.633-101.756,61.633-107.236
	c0.06-0.839,1.435-19.32,6.497-33.602c5.816,12.996,5.02,30.808,3.443,45.774c-2.935,27.867-11.252,52.458-24.059,71.113
	c-7.863,11.456-16.996,19.796-27.297,25.062c-0.08-0.002-0.148-0.039-0.229-0.035c-1.015,0.043-1.865,0.571-2.432,1.324
	c-10.695,4.822-22.599,6.446-35.658,4.776C473.331,234.038,444.808,208.436,436.229,170.554z M523.592,281.243
	c-6.451-15.063-23.095-29.583-41.766-34.901c-7.36-2.095-14.474-2.578-21.163-1.599c-1.128-8.68,0.651-15.416,2.106-19.186
	c13.388,10.59,29.98,17.537,48.928,19.953c3.54,0.452,7.014,0.676,10.42,0.676c8.98,0,17.474-1.582,25.409-4.664
	C546.919,266.891,533.526,277.133,523.592,281.243z M472.923,362.469l-1.173,0.156l-0.8,0.873
	c-1.256,1.364-8.177,11.717-21.433,81.686c-0.126,0.437-2.818,8.558-21.779,10.38c3.311-8.01,6.392-20.478,7.758-29.876
	c0.88-6.032-1.434-12.01-6.182-15.991c-13.683-11.47-18.952-20.82-20-22.859l-0.076-0.904c-3.155-34.59,1.386-67.033,12.816-93.88
	c0.191,3.845,1.086,7.623,3.146,10.916c4.34,6.94,12.743,10.29,24.843,10.028c20.987-0.503,46.273,0.392,55.498,11.704
	c3.86,4.734,4.812,11.198,2.945,19.726C501.413,353.529,490.268,360.155,472.923,362.469z M405.489,393.228
	c2.898,4.554,8.814,12.406,19.631,21.472c3.002,2.514,4.468,6.271,3.92,10.051c-1.643,11.274-5.423,24.841-8.511,30.927
	c-8.495-0.715-14.484-4.566-18.2-8.002c-6.587-6.083-10.921-15.194-11.093-23.272C392.426,415.526,396.811,403.189,405.489,393.228z
	 M515.484,331.539c-0.725-4.173-2.343-7.841-4.885-10.959c-8.706-10.682-26.822-14.888-60.709-14.107
	c-9.62,0.204-16.118-2.113-19.152-6.953c-5.378-8.587,0.43-24.208,3.228-29.744c14.78-22.121,35.2-20.254,46.072-17.157
	c20.755,5.911,39.396,24.942,39.893,40.725C520.348,306.538,519.697,319.991,515.484,331.539z M431.14,237.183
	c5.636-7.339,14.098-11.707,25.179-13.048c-1.71,4.754-3.424,12.395-2.051,22.031c-10.143,3.095-19.028,9.885-25.831,20.127
	c-1.978,2.978-3.816,6.091-5.581,9.269C421.964,265.167,422.307,248.692,431.14,237.183z M426.166,499.268
	c-3.652,4.203-12.823,11.733-21.624,10.175c-6.791-1.217-12.428-7.664-16.752-19.158l-0.309-0.615
	c-0.991-1.546-2.135-3.142-3.333-4.818c-5.701-7.954-12.16-16.972-9.541-30.773c1.402-7.383,3.773-12.966,5.863-17.89
	c3.03-7.132,5.65-13.291,3.955-21.478c-2.511-12.141,0.497-33.689,8.135-43.281l1.074-1.351l-0.51-1.647
	c-0.118-0.379-0.335-1.013-0.637-1.877c-15.672-45.132-10.519-71.588-3.435-85.835c5.687-11.434,15.06-19.895,27.889-25.221
	c-2.243,13.729-0.023,26.612,0.728,30.283c-13.046,28.546-18.325,63.487-14.931,100.731c-14.094,14.451-17.338,32.115-18.004,37.287
	l-0.029,0.226l0.003,0.229c0.115,9.844,5.293,20.917,13.193,28.218c6.737,6.224,15.049,9.559,24.211,9.834
	c0.081,0.006,0.162,0.035,0.243,0.035c0.049,0,0.096-0.016,0.145-0.018c0.278,0.006,0.55,0.037,0.83,0.037
	c0.943,0,1.896-0.032,2.855-0.096c9.294-0.631,15.656-2.666,20.07-5.068C444.825,466.662,440.326,484.121,426.166,499.268z
	 M458.346,433.954c9.659-48.535,15.366-62.112,16.954-65.23c18.532-2.784,30.502-10.429,38.184-20.429
	c0.468-0.342,0.816-0.821,1.05-1.379c11.15-15.616,12.463-36.5,11.918-53.776c-0.059-1.876-0.369-3.782-0.813-5.697
	c18.474-7.381,28.692-24.946,28.406-48.879c8.272-4.271,15.846-10.314,22.608-18.095c1.36,19.352,7.52,65.601,35.248,93.54
	c0.007,0.009,0.008,0.022,0.016,0.031c0.016,0.019,0.041,0.025,0.057,0.044c0.384,0.386,0.75,0.788,1.142,1.167
	c14.429,13.929,32.574,21.016,53.88,20.806c10.714,39.451,14.776,115.496,13.718,129.575
	c-75.839,43.58-171.202,23.976-181.702,19.904C476.659,450.475,463.078,437.758,458.346,433.954z M285.102,941.237
	c5.195,5.249,21.081,18.762,47.059,18.76c1.612,0,3.274-0.067,4.964-0.177c-0.882,4.255-3.459,8.68-6.325,10.415
	c-25.57,1.01-44.769-11.838-49.68-19.225C280.755,945.462,283.258,942.6,285.102,941.237z M275.577,966.665
	c1.345-3.342,2.457-6.106,3.324-8.257c8.037,8.105,25.391,18.048,47.839,18.378c-1.036,2.447-2.441,5.775-4.099,9.716l-13.944-0.033
	l-0.844,1.998c-0.003,0.003-1.603,3.783-3.563,8.304c-6.95-8.492-16.994-8.747-23.313-7.836l4.041-10.49L275.577,966.665z
	 M291.088,1064.312c-3.313,9.349-5.097,18.023-5.753,28.069c-1.126-0.653-2.225-1.334-3.437-1.895
	c-20.175-9.33-37.899,1.036-46.662,8.046c-1.405,1.128-1.635,3.18-0.51,4.589c1.128,1.405,3.174,1.638,4.589,0.51
	c7.587-6.071,22.855-15.079,39.842-7.224c12.766,5.902,19.719,17.651,20.675,34.919c0.172,3.136-0.937,6.134-3.123,8.448
	c-2.224,2.352-5.36,3.7-8.601,3.7h-56.811c-6.475,0-11.746-5.267-11.746-11.743v-15.602c0-5.602,1.029-11.073,3.062-16.268
	c18.448-47.102,39.055-98.58,50.17-126.249l4.796,5.985l-4.289,11.137c-0.561,1.463-0.255,3.091,0.8,4.251
	c1.055,1.157,2.651,1.606,4.143,1.182c4.85-1.377,16.787-3.394,22.925,7.575c0.746,1.322,2.116,2.119,3.61,2.119
	c0.067,0,0.137,0,0.207-0.003c1.552-0.076,2.906-1.01,3.54-2.441c1.749-3.993,3.499-8.069,4.5-10.411l6.888,0.015
	C310.781,1014.783,297.034,1047.965,291.088,1064.312z M473.073,779.414c-19.018,10.889-55.862,46.754-71.594,62.069
	c-2.546,2.479-4.5,4.382-5.675,5.491l-0.561,0.532l-0.264,0.727c-23.205,63.726-44.622,92.865-55.811,104.888
	c-28.45,2.836-45.304-12.179-49.74-16.781c2.731-8.464,14.528-45.323,24.62-80.756c6.128-21.51,18.266-34.511,31.121-48.274
	c11.144-11.934,22.667-24.276,32.179-43.239c17.942-35.76,34.736-61.602,38.505-67.286c7.726-0.826,49.779-2.842,103.093,39.748
	C512.148,746.989,500.724,763.588,473.073,779.414z M551.876,767.577c-10.063-0.655-28.23-2.207-44.929-5.547
	c8.271-8.276,13.467-15.812,17.079-21.341C533.053,748.288,542.37,757.186,551.876,767.577z M639.38,727.953
	c-14.273-12.332-27.386-17.734-38.96-16.026c-11.73,1.721-21.841,9.611-30.053,23.447c-4.722,7.951-8.853,19.31-12.154,29.472
	c-69.556-77.084-129.423-75.942-142.337-74.649c-5.494-14.681,17.59-40.072,30.238-53.985c4.907-5.398,8.454-9.299,9.977-11.889
	c2.457-4.174,2.798-8.884,3.129-13.441c0.545-7.505,1.013-13.989,9.754-19.104c12.909-7.552,13.275-11.29,12.431-20.978
	c-0.264-3.04-0.593-6.819-0.459-11.848c0.127-4.942,1.606-8.776,4.388-11.395c4.053-3.815,9.826-4.172,11.35-4.2
	c8.59,3.127,38.498,10.063,78.354,10.063c34.572,0,76.581-5.247,118.498-22.734c36.316,8.235,31.462,31.436,27.893,48.424
	c-1.163,5.532-2.081,9.901-1.221,13.043l0.293,0.72c5.392,9.726,6.59,16.245,7.552,21.484c1.262,6.864,2.259,12.284,11.838,17.772
	c9.579,5.494,11.679,11.249,13.903,17.339c0.95,2.594,1.928,5.277,3.502,7.912c16.226,26.49,28.59,55.69,33.176,70.358
	c-45.145,1.733-81.218,20.66-99.101,32.105c-0.32,0.126-0.606,0.337-0.882,0.568c-4.254,2.756-7.4,5.029-9.288,6.457
	c-8.658-6.574-16.504-14.364-24.077-21.966C651.461,739.218,645.607,733.335,639.38,727.953z M790.567,874.325
	c-22.087-11.112-33.071-30.49-43.692-49.227c-1.584-2.798-3.168-5.593-4.783-8.355c-10.817-18.502-35.791-44.575-44.309-53.243
	c18.303-11.28,52.595-28.171,94.991-29.28c3.007,6.206,12.861,27.133,17.378,44.07c5.478,20.547,11.093,33.253,31.701,58.749
	c20.732,25.646,33.801,60.116,42.293,111.609c-18.438,17.122-42.197,18.683-48.488,18.782
	c-43.74-64.309-43.415-83.031-43.306-89.213l0.013-2.986L790.567,874.325z M978.817,1139.663c-1.141,1.189-2.677,1.842-4.327,1.842
	h-64.105c-4.13,0-7.865-2.603-9.292-6.478l-48.176-130.549l12.291-0.883l4.414,10.736c0.561,1.367,1.762,2.345,3.212,2.623
	c0.271,0.051,0.542,0.076,0.813,0.076c1.163,0,2.282-0.468,3.107-1.329c1.931-2.02,7.454-6.631,17.064-6.217
	c1.612,0.108,2.941-0.637,3.798-1.871c0.848-1.217,1.007-2.76,0.427-4.133c-1.389-3.273-3.206-8.505-4.13-11.223l5.515-6.243
	l39.589,103.156c-11.199,1.527-18.487,6.948-18.952,7.307c-1.428,1.093-1.698,3.132-0.612,4.563c1.083,1.424,3.129,1.708,4.57,0.625
	c0.618-0.465,15.42-11.392,35.091-3.553c17.571,7.007,20.907,26.379,21.331,37.303
	C980.506,1136.999,979.929,1138.509,978.817,1139.663z"/>
</svg>
