<?xml version="1.0" encoding="utf-8"?>
<!-- Designed by Vexels.com - 2020 All Rights Reserved - https://vexels.com/terms-and-conditions/  -->
<svg version="1.1" id="Capa_1" xmlns="http://www.w3.org/2000/svg" xmlns:xlink="http://www.w3.org/1999/xlink" x="0px" y="0px"
	 viewBox="0 0 1200 1200" enable-background="new 0 0 1200 1200" xml:space="preserve">
<g>
	<path fill="#494447" d="M945.659,1095.002l-43.331-112.909c0,0-10.39,11.757-10.39,11.757s2.827,8.562,4.847,13.326
		c0.314,0.742-0.279,1.512-1.084,1.475c-10.915-0.503-17.286,4.761-19.68,7.264c-0.536,0.56-1.472,0.362-1.767-0.355l-5.344-12.998
		c0,0-19.085,1.375-19.085,1.375l49.971,135.421c1.921,5.205,6.881,8.662,12.429,8.662h64.484c5.23,0,9.475-4.316,9.272-9.542
		c-0.474-12.229-4.27-32.766-23.522-40.442C956.37,1095.608,950.688,1094.843,945.659,1095.002z"/>
	<path fill="#494447" d="M269.892,969.413c0,0,9.519,11.876,9.519,11.876l-4.991,12.959c-0.251,0.653,0.34,1.323,1.013,1.132
		c4.885-1.385,19.371-4.131,26.814,9.165c0.35,0.625,1.245,0.618,1.532-0.037c2.687-6.117,5.366-12.44,5.366-12.44l13.814,0.539
		c-9.05,21.539-24.238,58.06-30.608,75.573c-3.498,9.871-5.563,19.559-5.866,33.031c11.449,9.155,14.284,22.977,14.844,33.102
		c0.474,8.555-6.502,15.687-15.07,15.687H229.11c-8.337,0-15.096-6.759-15.096-15.096l0-15.694c0-6.013,1.116-11.96,3.309-17.559
		C237.224,1050.836,259.403,995.499,269.892,969.413z"/>
	<path fill="#D24056" d="M447.943,61.488C485.146,41.43,569.407,48.19,595.835,77.452c12.792,14.164,11.484,39.482,9.643,56.964
		c-2.679,25.433-10.05,51.623-24.76,73.051c-16.548,24.105-39.562,36.481-69.128,32.71c-38.432-4.902-69.983-29.243-79.533-71.421
		C424.217,134.131,427.36,91.444,447.943,61.488z"/>
	<path fill="#F28878" d="M482.454,125.697c-15.424,51.202,2.097,105.448,47.31,100.755c38.382-3.984,46.237-62.486,47.831-88.661
		C545.056,142.782,512.854,137.305,482.454,125.697z"/>
	<path fill="#D76D60" d="M577.595,137.792c0.463-7.613,0.402-12.515,0.402-12.515c-38.92,10.247-82.733-5.859-92.12-9.512
		c-1.283,3.286-2.42,6.603-3.423,9.932C512.854,137.305,545.056,142.782,577.595,137.792z"/>
	<path fill="#D24056" d="M451.836,444.965c0,0-2.177,11.552-26.904,13.228c-24.726,1.676-38.049-20.209-38.217-34.997
		c1.372-10.658,6.826-25.556,18.259-36.69c-0.628-7.957-8.217-70.062,25.181-120.352c30.612-46.095,91.623-5.292,92.584,25.291
		c0.93,29.59-3.149,66.621-50.134,72.892C472.604,364.337,465.682,371.878,451.836,444.965z"/>
	<path fill="#EB3F43" d="M848.026,177.785c-5.42,13.467-20.131,39.091-57.521,57.702c-5.613,2.794-12.292,2.392-17.617-0.918
		c-13.567-8.434-33.601-25.292-44.871-45.727c-2.418-4.384-2.731-9.624-1.088-14.353c5.089-14.642,16.258-41.234,29.006-58.775
		c4.31-5.931,11.7-8.844,18.904-7.479c20.121,3.814,56.876,16.724,72.673,51.511C850.101,165.444,850.362,171.979,848.026,177.785z"
		/>
	<path fill="#231F20" d="M945.659,1095.002c-13.042,0.413-21.703,7.042-21.703,7.042s0.505-10.467,17.809-17.188
		C943.339,1088.957,945.659,1095.002,945.659,1095.002z"/>
	<path fill="#A62F55" d="M529.764,226.452c49.547-5.143,48.233-101.176,48.233-101.176c3.34-0.879,7.693-2.297,10.936-3.589
		C588.933,121.687,589.156,222.603,529.764,226.452z"/>
	<path fill="#EB3F43" d="M598.071,80.233c-7.643,15.484-9.138,41.454-9.138,41.454c-3.243,1.292-7.596,2.71-10.936,3.589
		c-38.92,10.247-82.734-5.859-92.12-9.512c0,0-7.986-34.518-37.934-54.277C485.146,41.43,569.407,48.19,595.835,77.452
		C596.634,78.337,597.378,79.266,598.071,80.233z"/>
	<path fill="#A62F55" d="M404.973,386.507c-11.433,11.134-16.886,26.032-18.259,36.69c0.16,14.047,12.19,34.499,34.59,35.075
		c3.878-5.958,8.249-22.254,9.969-34.065c0.722-4.961-1.24-9.879-5.082-13.099C409.768,397.34,404.973,386.507,404.973,386.507z"/>
	<path fill="#A62F55" d="M404.973,386.507c-11.433,11.134-16.886,26.032-18.259,36.69c0.16,14.047,12.19,34.499,34.59,35.075
		c3.878-5.958,8.249-22.254,9.969-34.065c0.722-4.961-1.24-9.879-5.082-13.099C409.768,397.34,404.973,386.507,404.973,386.507z"/>
	<path fill="#D76D60" d="M387.933,365.626c0.395,1.142,0.69,1.981,0.828,2.425c-2.622,3.293-4.702,7.723-6.26,12.637
		c4.902,1.435,10.044,1.462,13.999,1.462C394.409,375.877,390.991,370.932,387.933,365.626z"/>
	<path fill="#F28878" d="M399.597,449.778c-8.372-7.365-12.786-18.125-12.883-26.581c1.372-10.658,6.825-25.556,18.259-36.69
		c-0.555-7.023-6.531-56.222,15.032-102.252c0.003,0.001-4.329-18.496,0.284-35.915c-64.807,21.027-37.904,101.27-32.356,117.287
		c3.058,5.306,6.476,10.251,8.567,16.523c-3.955,0-9.097-0.026-13.999-1.462c-3.547,11.177-4.373,24.885-2.568,33.609
		c2.598,12.559-6.409,20.001-9.888,38.326c-3.478,18.325,7.601,29.143,13.417,38.191c13.433,35.709,36.984,18.284,44.151,10.029
		c9.77-10.448,15.117-21.912,18.068-31.379C427.228,468.363,408.988,462.678,399.597,449.778z"/>
	<path fill="#D76D60" d="M424.932,458.193c-10.587,0.718-19.066-2.901-25.334-8.415c9.391,12.9,27.63,18.585,46.083,19.686
		c3.599-11.548,3.621-20.114,3.621-20.114C446.213,452.808,439.47,457.208,424.932,458.193z"/>
	<path fill="#D76D60" d="M838.634,257.909c0.936-7.205,0.559-12.463,0.559-12.463c-30.514,7.63-53.582-8.361-53.582-8.361
		c-0.013,0.002-0.026,0.001-0.04,0.003C798.677,250.692,819.199,258.288,838.634,257.909z"/>
	<path fill="#F28878" d="M785.571,237.088c-4.328,0.733-8.855-0.14-12.683-2.52c-6.395-3.975-14.225-9.822-21.898-17.032
		c-37.242,4.093-52.674-8.288-91.158-27.927c-38.484-19.639-68.582-0.802-68.582-0.802c-2.992,6.504-6.484,12.762-10.533,18.66
		c-0.43,0.625-0.863,1.242-1.301,1.852c0,0,0.221,66.114,35.102,100.972c0,0,24.632-20.231,39.846-46.346
		c9.657,4.879,44.426,16.779,79.215,17.091c34.789,0.312,83.296,20.949,96.716,0.863c5.183-7.758,7.409-16.833,8.338-23.989
		C819.199,258.288,798.677,250.692,785.571,237.088z"/>
	<path fill="#A62F55" d="M524.515,375.585c28.743-26.69,44.646-67.504,69.392-96.743c-14.355-33.049-14.49-69.524-14.49-69.524
		c-8.14,11.327-17.783,19.9-28.939,25.226c1.207,28.674-12.341,43.518-29.2,49.037c0.874,2.655,1.379,5.296,1.459,7.865
		c0.93,29.59-3.149,66.621-50.134,72.892c0,0-4.314,4.728-12.933,42.61C482.867,410.993,508.869,391.231,524.515,375.585z"/>
	<path fill="#9C2C54" d="M669.865,331.188c-41.333,1.303-63.77-24.288-75.958-52.347c-24.747,29.239-40.649,70.053-69.392,96.743
		c-15.646,15.646-41.648,35.409-64.844,31.363c-1.753,7.704-3.68,16.747-5.789,27.436c0,0,9.915,6.162,29.65,34.153
		c77.034,8.141,139.806-39.821,195.051-91.423C676.331,359.927,673.436,343.499,669.865,331.188z"/>
	<path fill="#8F2B58" d="M678.584,377.113c-55.245,51.602-118.017,99.564-195.051,91.423c3.84,5.447,8.046,11.707,12.63,18.924
		c7.553,4.132,109.612,25.476,188.104-20.593C685.52,459.564,683.73,416.354,678.584,377.113z"/>
	<path fill="#EB3F43" d="M511.02,344.221c11.046-14.837,12.272-35.129,11.718-52.775c-0.961-30.583-61.972-71.386-92.584-25.291
		c0,0-22.099,42.846,18.925,41.884C490.102,307.077,518.206,313.011,511.02,344.221z"/>
	<path fill="#D76D60" d="M614.519,310.29c0,0,24.632-20.231,39.846-46.347c2.501,1.264,6.686,2.998,12.12,4.879
		c0,0,7.48,23.158,3.381,62.366C645.392,331.96,627.541,323.304,614.519,310.29z"/>
	<path fill="#EB3F43" d="M512.187,491.522c-8.721-1.591-14.449-3.201-16.024-4.062c0,0-8.569,23.869,0.468,52.3
		c13.432,5.215,105.4,25.835,197.199-12.892c1.376-3.1,2.705-10.924,2.625-20.305C625.593,517.592,542.596,560.627,512.187,491.522z
		"/>
	<path fill="#EB4550" d="M637.803,486.382c-50.028,14.144-100.454,9.731-125.616,5.14c30.41,69.104,113.406,26.069,184.268,15.04
		c-0.033-3.886-0.352-8.046-0.971-12.249C676.118,494.95,656.463,491.999,637.803,486.382z"/>
	<path fill="#EB4D5F" d="M695.483,494.313c-1.448-9.826-4.731-19.911-11.217-27.446c-14.909,8.751-30.667,15.048-46.463,19.515
		C656.463,491.999,676.118,494.95,695.483,494.313z"/>
	<path fill="#9C2C54" d="M724.088,591.266c-2.838-10.369,22.794-52.99-30.259-64.398c-8.083,3.41-16.165,6.337-24.198,8.878
		c-19.901,33.416-47.703,61.802-86.033,76.175c-43.614,14.538-90.796-1.295-131.002,10.523c-0.069,0.126-0.115,0.259-0.188,0.383
		c-5.734,9.748-52.304,49.904-39.547,71.488c7.987-1.436,40.282-2.676,82.828,23.026c35.579-43.344,96.936-30.563,150.276-36.49
		c34.684-4.335,66.496-28.718,87.89-59.902C731.254,614.742,732.643,606.698,724.088,591.266z"/>
	<path fill="#A62F55" d="M583.599,611.921c38.33-14.374,66.131-42.76,86.033-76.175c-83.186,26.314-160.752,8.771-173.001,4.014
		c0,0-19.155-0.822-19.671,18.886c-0.516,19.709,5.729,20.824-10.418,30.272c-15.941,9.329-8.618,23.778-13.945,33.525
		C492.803,610.626,539.985,626.459,583.599,611.921z"/>
	<path fill="#8F2B58" d="M761.028,656.028c-4.906-8.212-3.717-17.953-18.677-26.53c-4.955-2.841-7.207-5.473-8.495-8.547
		c-21.394,31.184-53.207,55.567-87.89,59.902c-53.34,5.927-114.697-6.854-150.276,36.49c19.516,11.79,41.186,29.242,63.662,54.959
		c2.718-8.706,7.783-24.527,13.659-34.425c6.24-10.51,15.301-20.17,27.89-22.016c13.277-1.946,26.999,7.09,36.564,15.358
		c15.208,13.146,27.874,28.969,44.215,40.824c6.79-5.662,52.548-39.496,114.25-40.354
		C792.631,718.888,779.417,686.052,761.028,656.028z"/>
	<path fill="#D76D60" d="M289.14,922.674c-3.197,10.129-5.26,16.477-5.26,16.477s19.183,23.37,55.298,19.219
		c1.81-1.897,3.931-4.29,6.311-7.237C324.344,947.517,300.402,940.408,289.14,922.674z"/>
	<path fill="#F28878" d="M408.889,700.381c-6.627,10.323-20.736,33.197-35.795,63.214c-20.748,41.355-52.277,51.825-63.897,92.625
		c-7.117,24.985-15.005,50.452-20.056,66.454c11.262,17.734,35.204,24.843,56.349,28.458
		c12.159-15.063,31.188-44.895,51.355-100.284c0.239-0.226,0.518-0.492,0.819-0.78c15.072-36.98,57.679-58.042,77.614-90.437
		C487.587,735.013,439.312,716.165,408.889,700.381z"/>
	<path fill="#D76D60" d="M412.861,694.316c0,0-1.469,2.166-3.973,6.065c30.424,15.783,78.699,34.632,66.39,59.25
		c-19.935,32.395-62.542,53.456-77.614,90.437c10.192-9.771,55.014-54.541,76.287-66.718c30.869-17.67,42.369-36.679,48.902-46.717
		C467.31,691.127,422.477,692.588,412.861,694.316z"/>
	<path fill="#D76D60" d="M744.439,772.761c2.822-22.581,29.914-28.173,54.147-35.558c-1.605-3.411-2.657-5.515-2.657-5.515
		c-46.784,0.65-84.402,20.259-102.817,32.171c0,0.001,34.118,33.836,46.986,55.847c4.246,7.264,8.279,14.727,12.715,21.952
		C749.258,817.978,742.178,795.369,744.439,772.761z"/>
	<path fill="#F28878" d="M888.932,949.488c-8.908-53.551-22.588-87.717-43.095-113.088c-20.223-25.02-25.754-37.189-31.271-57.877
		c-3.971-14.891-11.859-32.558-15.98-41.319c-24.233,7.384-51.324,12.977-54.147,35.558c-2.261,22.608,4.82,45.217,8.374,68.898
		c8.838,14.395,19.342,27.801,36.467,36.716c1.584-2.38,3.206-4.76,4.396-7.14C796.618,921.261,841.775,968.598,888.932,949.488z"/>
	<path fill="#D76D60" d="M793.676,871.234c-1.19,2.38-2.812,4.76-4.396,7.14c0.325,0.169,0.612,0.364,0.942,0.529
		c0,6.254-2.637,24.131,45.092,93.997c0,0,31.115,1.459,54.035-20.986c-0.134-0.828-0.28-1.609-0.416-2.428
		C841.775,968.598,796.618,921.261,793.676,871.234z"/>
	<path fill="#A62F55" d="M460.749,218.231c0,0-7.076,11.15-3.623,28.189c-9.939,2.23-19.388,8.316-26.972,19.735
		c-3.922,5.906-7.279,11.975-10.146,18.101C420.008,284.256,404.973,220.06,460.749,218.231z"/>
	<path fill="#D76D60" d="M460.748,218.232c13.924,12.096,31.513,19.478,50.842,21.944c14.545,1.855,27.505-0.197,38.889-5.632
		c1.207,28.674-12.341,43.518-29.2,49.037c-6.957-21.127-37.34-43.176-64.153-37.161
		C453.672,229.38,460.749,218.231,460.748,218.232z"/>
	<path fill="#A62F55" d="M283.88,939.151c0,0,19.183,23.37,55.299,19.219c0.281,6.133-3.661,14.715-9.079,17.325
		c-29,1.478-49.586-13.834-54.074-21.513C274.779,942.467,283.88,939.151,283.88,939.151z"/>
	<path fill="#A62F55" d="M835.313,972.901c0,0,31.115,1.459,54.035-20.986c2.705,1.479,7.839,9.799,6.899,14.335
		c-16.459,19.722-42.429,22.313-52.648,20.821C834.017,981.565,835.313,972.901,835.313,972.901z"/>
	<path fill="#D7B8AF" d="M286.293,963.952c-5.147-3.496-8.703-7.095-10.266-9.771c0,0-2.277,5.638-6.135,15.232l9.519,11.876
		l-4.991,12.959c-0.252,0.653,0.34,1.323,1.013,1.132c2.963-0.84,9.455-2.159,15.768-0.118
		C286.572,985.733,284.884,974.692,286.293,963.952z"/>
	<path fill="#EBDBE0" d="M302.247,1004.546c0.35,0.625,1.245,0.618,1.533-0.037c2.686-6.117,5.366-12.44,5.366-12.44l13.814,0.539
		c4.246-10.106,7.141-16.914,7.141-16.914c-18.897,0.963-34.182-5.205-43.807-11.742c-1.409,10.74,0.28,21.781,4.908,31.311
		C295.297,996.587,299.317,999.313,302.247,1004.546z"/>
	<path fill="#EBDBE0" d="M889.599,1009.039c1.862-0.309,3.861-0.492,6.101-0.389c0.805,0.037,1.398-0.733,1.084-1.475
		c-2.02-4.764-4.847-13.326-4.847-13.326s10.39-11.757,10.39-11.757l-6.08-15.842c-8.404,10.07-19.282,15.658-29.283,18.532
		C871.967,994.444,880.002,1002.422,889.599,1009.039z"/>
	<path fill="#D7B8AF" d="M866.964,984.783c-9.584,2.755-18.364,3.019-23.364,2.289l6.224,16.865l19.086-1.375l5.344,12.998
		c0.295,0.717,1.232,0.915,1.767,0.355c1.902-1.99,6.366-5.679,13.579-6.875C880.002,1002.422,871.967,994.444,866.964,984.783z"/>
	<path fill="#231F20" d="M242.303,1099.148c7.545-10.426,20.752-20.115,45.71-14.653c-0.868,5.021-1.388,10.461-1.529,16.717
		c-2.264-1.81-4.865-3.438-7.852-4.819C264.366,1089.798,249.954,1092.985,242.303,1099.148z"/>
	<path fill="#832253" d="M499.742,764.856c26.57,6.176,59.61,7.445,59.61,7.445c-12.491-14.292-24.734-26.034-36.499-35.669
		C518.593,743.178,512.22,753.539,499.742,764.856z"/>
	<path fill="#832253" d="M693.112,763.859c0,0,3.962,3.929,9.694,9.98c-14.209,1.502-21.126-1.797-21.126-1.797
		C683.321,770.673,687.24,767.657,693.112,763.859z"/>
	<path fill="#D24056" d="M813.164,221.541c0,0,10.691,4.066,23.617-0.231c0,0,7.693,10.365,2.412,24.136
		c-30.514,7.63-53.582-8.361-53.582-8.361c1.679-0.288,3.328-0.819,4.894-1.598C799.239,231.14,806.735,226.41,813.164,221.541z"/>
	<path fill="#A62F55" d="M813.164,221.541c21.096-15.973,30.707-33.435,34.861-43.757c1.624-4.035,1.993-8.423,1.198-12.637
		c12.461,22.665-12.443,56.162-12.443,56.162C823.856,225.607,813.164,221.541,813.164,221.541z"/>
	<path fill="#A62F55" d="M754.554,117.659c-11.287,16.241-21.181,39.103-26.469,53.592c-7.038-3.684-13.856-9.286-15.01-17.614
		C710.01,131.531,735.768,117.296,754.554,117.659z"/>
</g>
</svg>
